<svg width="48" height="48" viewBox="0 0 48 48" fill="none" xmlns="http://www.w3.org/2000/svg">
<g clip-path="url(#clip0_173_2094)">
<path d="M23.25 30.25H21C19.9 30.25 19 31.15 19 32.25V32.5H18C17.59 32.5 17.25 32.84 17.25 33.25C17.25 33.66 17.59 34 18 34H30C30.41 34 30.75 33.66 30.75 33.25C30.75 32.84 30.41 32.5 30 32.5H29V32.25C29 31.15 28.1 30.25 27 30.25H24.75V27.96C24.5 27.99 24.25 28 24 28C23.75 28 23.5 27.99 23.25 27.96V30.25Z" fill="#5761D7"/>
<path d="M30.4803 23.64C31.1403 23.39 31.7203 22.98 32.1803 22.52C33.1103 21.49 33.7203 20.26 33.7203 18.82C33.7203 17.38 32.5903 16.25 31.1503 16.25H30.5903C29.9403 14.92 28.5803 14 27.0003 14H21.0003C19.4203 14 18.0603 14.92 17.4103 16.25H16.8503C15.4103 16.25 14.2803 17.38 14.2803 18.82C14.2803 20.26 14.8903 21.49 15.8203 22.52C16.2803 22.98 16.8603 23.39 17.5203 23.64C18.5603 26.2 21.0603 28 24.0003 28C26.9403 28 29.4403 26.2 30.4803 23.64ZM26.8403 20.45L26.2203 21.21C26.1203 21.32 26.0503 21.54 26.0603 21.69L26.1203 22.67C26.1603 23.27 25.7303 23.58 25.1703 23.36L24.2603 23C24.1203 22.95 23.8803 22.95 23.7403 23L22.8303 23.36C22.2703 23.58 21.8403 23.27 21.8803 22.67L21.9403 21.69C21.9503 21.54 21.8803 21.32 21.7803 21.21L21.1603 20.45C20.7703 19.99 20.9403 19.48 21.5203 19.33L22.4703 19.09C22.6203 19.05 22.8003 18.91 22.8803 18.78L23.4103 17.96C23.7403 17.45 24.2603 17.45 24.5903 17.96L25.1203 18.78C25.2003 18.91 25.3803 19.05 25.5303 19.09L26.4803 19.33C27.0603 19.48 27.2303 19.99 26.8403 20.45Z" fill="#5761D7"/>
<path fill-rule="evenodd" clip-rule="evenodd" d="M32 2H16C8.26801 2 2 8.26801 2 16V32C2 39.732 8.26801 46 16 46H32C39.732 46 46 39.732 46 32V16C46 8.26801 39.732 2 32 2ZM16 0C7.16344 0 0 7.16344 0 16V32C0 40.8366 7.16344 48 16 48H32C40.8366 48 48 40.8366 48 32V16C48 7.16344 40.8366 0 32 0H16Z" fill="#5761D7"/>
</g>
<defs>
<clipPath id="clip0_173_2094">
<rect width="48" height="48" fill="white"/>
</clipPath>
</defs>
</svg>
