<svg width="48" height="48" viewBox="0 0 48 48" fill="none" xmlns="http://www.w3.org/2000/svg">
<g clip-path="url(#clip0_173_2102)">
<path d="M26.8896 15.45H21.1096C20.7096 15.45 20.3896 15.13 20.3896 14.73C20.3896 14.33 20.7096 14 21.1096 14H26.8896C27.2896 14 27.6096 14.32 27.6096 14.72C27.6096 15.12 27.2896 15.45 26.8896 15.45Z" fill="#5761D7"/>
<path d="M31.97 27H29.03C27.76 27 27 27.76 27 29.03V31.97C27 33.24 27.76 34 29.03 34H31.97C33.24 34 34 33.24 34 31.97V29.03C34 27.76 33.24 27 31.97 27ZM31.69 31.46L30.51 32.14C30.27 32.28 30.03 32.35 29.81 32.35C29.64 32.35 29.49 32.31 29.35 32.23C29.03 32.04 28.85 31.67 28.85 31.18V29.82C28.85 29.33 29.03 28.96 29.35 28.77C29.67 28.58 30.08 28.62 30.51 28.86L31.69 29.54C32.11 29.79 32.35 30.13 32.35 30.5C32.35 30.87 32.12 31.21 31.69 31.46Z" fill="#5761D7"/>
<path d="M26.0001 31.9704V29.0304C26.0001 27.2204 27.2201 26.0004 29.0301 26.0004H31.9701C32.2001 26.0004 32.4201 26.0204 32.6301 26.0604C32.6501 25.8204 32.6701 25.5804 32.6701 25.3304C32.6701 20.5404 28.7801 16.6504 24.0001 16.6504C19.2201 16.6504 15.3301 20.5404 15.3301 25.3304C15.3301 30.1104 19.2201 34.0004 24.0001 34.0004C24.8501 34.0004 25.6601 33.8604 26.4401 33.6404C26.1601 33.1704 26.0001 32.6104 26.0001 31.9704ZM24.7501 25.0004C24.7501 25.4104 24.4101 25.7504 24.0001 25.7504C23.5901 25.7504 23.2501 25.4104 23.2501 25.0004V20.0004C23.2501 19.5904 23.5901 19.2504 24.0001 19.2504C24.4101 19.2504 24.7501 19.5904 24.7501 20.0004V25.0004Z" fill="#5761D7"/>
<path fill-rule="evenodd" clip-rule="evenodd" d="M32 2H16C8.26801 2 2 8.26801 2 16V32C2 39.732 8.26801 46 16 46H32C39.732 46 46 39.732 46 32V16C46 8.26801 39.732 2 32 2ZM16 0C7.16344 0 0 7.16344 0 16V32C0 40.8366 7.16344 48 16 48H32C40.8366 48 48 40.8366 48 32V16C48 7.16344 40.8366 0 32 0H16Z" fill="#5761D7"/>
</g>
<defs>
<clipPath id="clip0_173_2102">
<rect width="48" height="48" fill="white"/>
</clipPath>
</defs>
</svg>
