<svg width="48" height="48" viewBox="0 0 48 48" fill="none" xmlns="http://www.w3.org/2000/svg">
<g clip-path="url(#clip0_173_2013)">
<path d="M33.5 27.5C33.78 27.5 34 27.72 34 28V29C34 30.66 32.66 32 31 32C31 30.35 29.65 29 28 29C26.35 29 25 30.35 25 32H23C23 30.35 21.65 29 20 29C18.35 29 17 30.35 17 32C15.34 32 14 30.66 14 29V27C14 26.45 14.45 26 15 26H24.5C25.88 26 27 24.88 27 23.5V18C27 17.45 27.45 17 28 17H28.84C29.56 17 30.22 17.39 30.58 18.01L31.22 19.13C31.31 19.29 31.19 19.5 31 19.5C29.62 19.5 28.5 20.62 28.5 22V25C28.5 26.38 29.62 27.5 31 27.5H33.5Z" fill="#5761D7"/>
<path d="M20 34C21.1046 34 22 33.1046 22 32C22 30.8954 21.1046 30 20 30C18.8954 30 18 30.8954 18 32C18 33.1046 18.8954 34 20 34Z" fill="#5761D7"/>
<path d="M28 34C29.1046 34 30 33.1046 30 32C30 30.8954 29.1046 30 28 30C26.8954 30 26 30.8954 26 32C26 33.1046 26.8954 34 28 34Z" fill="#5761D7"/>
<path d="M34 24.53V26H31C30.45 26 30 25.55 30 25V22C30 21.45 30.45 21 31 21H32.29L33.74 23.54C33.91 23.84 34 24.18 34 24.53Z" fill="#5761D7"/>
<path d="M25.08 14H17.69C15.9 14 14.4 15.28 14.07 16.98H18.44C18.82 16.98 19.12 17.29 19.12 17.67C19.12 18.05 18.82 18.35 18.44 18.35H14V19.73H16.6C16.98 19.73 17.29 20.04 17.29 20.42C17.29 20.8 16.98 21.1 16.6 21.1H14V22.48H14.77C15.15 22.48 15.46 22.79 15.46 23.17C15.46 23.55 15.15 23.85 14.77 23.85H14V24.08C14 24.63 14.45 25.08 15 25.08H24.15C25.17 25.08 26 24.25 26 23.23V14.92C26 14.41 25.59 14 25.08 14Z" fill="#5761D7"/>
<path d="M14.07 16.9805H13.92H12.94C12.56 16.9805 12.25 17.2905 12.25 17.6705C12.25 18.0505 12.56 18.3505 12.94 18.3505H13.85H14V17.6905C14 17.4505 14.03 17.2105 14.07 16.9805Z" fill="#5761D7"/>
<path d="M13.85 19.7305H12.94C12.56 19.7305 12.25 20.0405 12.25 20.4205C12.25 20.8005 12.56 21.1005 12.94 21.1005H13.85H14V19.7305H13.85Z" fill="#5761D7"/>
<path d="M13.85 22.4805H12.94C12.56 22.4805 12.25 22.7905 12.25 23.1705C12.25 23.5505 12.56 23.8505 12.94 23.8505H13.85H14V22.4805H13.85Z" fill="#5761D7"/>
<path fill-rule="evenodd" clip-rule="evenodd" d="M32 2H16C8.26801 2 2 8.26801 2 16V32C2 39.732 8.26801 46 16 46H32C39.732 46 46 39.732 46 32V16C46 8.26801 39.732 2 32 2ZM16 0C7.16344 0 0 7.16344 0 16V32C0 40.8366 7.16344 48 16 48H32C40.8366 48 48 40.8366 48 32V16C48 7.16344 40.8366 0 32 0H16Z" fill="#5761D7"/>
</g>
<defs>
<clipPath id="clip0_173_2013">
<rect width="48" height="48" fill="white"/>
</clipPath>
</defs>
</svg>
