<svg width="48" height="48" viewBox="0 0 48 48" fill="none" xmlns="http://www.w3.org/2000/svg">
<g clip-path="url(#clip0_173_2028)">
<path d="M17 26C14.79 26 13 27.79 13 30C13 30.75 13.21 31.46 13.58 32.06C14.27 33.22 15.54 34 17 34C18.46 34 19.73 33.22 20.42 32.06C20.79 31.46 21 30.75 21 30C21 27.79 19.21 26 17 26ZM18.49 30.73H17.75V31.51C17.75 31.92 17.41 32.26 17 32.26C16.59 32.26 16.25 31.92 16.25 31.51V30.73H15.51C15.1 30.73 14.76 30.39 14.76 29.98C14.76 29.57 15.1 29.23 15.51 29.23H16.25V28.52C16.25 28.11 16.59 27.77 17 27.77C17.41 27.77 17.75 28.11 17.75 28.52V29.23H18.49C18.9 29.23 19.24 29.57 19.24 29.98C19.24 30.39 18.91 30.73 18.49 30.73Z" fill="#5761D7"/>
<path d="M33.5 23.5H31C29.9 23.5 29 24.4 29 25.5C29 26.6 29.9 27.5 31 27.5H33.5C33.78 27.5 34 27.28 34 27V24C34 23.72 33.78 23.5 33.5 23.5Z" fill="#5761D7"/>
<path d="M28.5302 16.4002C28.8302 16.6902 28.5802 17.1402 28.1602 17.1402L19.8802 17.1302C19.4002 17.1302 19.1602 16.5502 19.5002 16.2102L21.2502 14.4502C22.7302 12.9802 25.1202 12.9802 26.6002 14.4502L28.4902 16.3602C28.5002 16.3702 28.5202 16.3902 28.5302 16.4002Z" fill="#5761D7"/>
<path d="M33.8704 29.66C33.2604 31.72 31.5004 33 29.1004 33H22.6004C22.2104 33 21.9604 32.57 22.1204 32.21C22.4204 31.51 22.6104 30.72 22.6104 30C22.6104 26.97 20.1404 24.5 17.1104 24.5C16.3504 24.5 15.6104 24.66 14.9304 24.96C14.5604 25.12 14.1104 24.87 14.1104 24.47V23C14.1104 20.28 15.7504 18.38 18.3004 18.06C18.5504 18.02 18.8204 18 19.1004 18H29.1004C29.3604 18 29.6104 18.01 29.8504 18.05C31.8704 18.28 33.3304 19.51 33.8704 21.34C33.9704 21.67 33.7304 22 33.3904 22H31.1004C28.9304 22 27.2104 23.98 27.6804 26.23C28.0104 27.87 29.5304 29 31.2004 29H33.3904C33.7404 29 33.9704 29.34 33.8704 29.66Z" fill="#5761D7"/>
<path fill-rule="evenodd" clip-rule="evenodd" d="M32 2H16C8.26801 2 2 8.26801 2 16V32C2 39.732 8.26801 46 16 46H32C39.732 46 46 39.732 46 32V16C46 8.26801 39.732 2 32 2ZM16 0C7.16344 0 0 7.16344 0 16V32C0 40.8366 7.16344 48 16 48H32C40.8366 48 48 40.8366 48 32V16C48 7.16344 40.8366 0 32 0H16Z" fill="#5761D7"/>
</g>
<defs>
<clipPath id="clip0_173_2028">
<rect width="48" height="48" fill="white"/>
</clipPath>
</defs>
</svg>
