<svg width="48" height="48" viewBox="0 0 48 48" fill="none" xmlns="http://www.w3.org/2000/svg">
<g clip-path="url(#clip0_173_2128)">
<path d="M25.3 20.1103L26.62 22.7503C26.8 23.1103 27.28 23.4703 27.68 23.5303L30.07 23.9303C31.6 24.1903 31.96 25.2903 30.86 26.3903L29 28.2603C28.69 28.5703 28.51 29.1803 28.61 29.6203L29.14 31.9303C29.56 33.7503 28.59 34.4603 26.98 33.5103L24.74 32.1803C24.33 31.9403 23.67 31.9403 23.26 32.1803L21.01 33.5003C19.4 34.4503 18.43 33.7403 18.85 31.9203L19.38 29.6103C19.48 29.1803 19.3 28.5703 18.99 28.2503L17.14 26.4003C16.04 25.3003 16.4 24.1903 17.93 23.9403L20.32 23.5403C20.72 23.4703 21.2 23.1203 21.38 22.7603L22.7 20.1203C23.41 18.6803 24.59 18.6803 25.3 20.1103Z" fill="#5761D7"/>
<path d="M18 21.75C17.59 21.75 17.25 21.41 17.25 21V14C17.25 13.59 17.59 13.25 18 13.25C18.41 13.25 18.75 13.59 18.75 14V21C18.75 21.41 18.41 21.75 18 21.75Z" fill="#5761D7"/>
<path d="M30 21.75C29.59 21.75 29.25 21.41 29.25 21V14C29.25 13.59 29.59 13.25 30 13.25C30.41 13.25 30.75 13.59 30.75 14V21C30.75 21.41 30.41 21.75 30 21.75Z" fill="#5761D7"/>
<path d="M24 16.75C23.59 16.75 23.25 16.41 23.25 16V14C23.25 13.59 23.59 13.25 24 13.25C24.41 13.25 24.75 13.59 24.75 14V16C24.75 16.41 24.41 16.75 24 16.75Z" fill="#5761D7"/>
<path fill-rule="evenodd" clip-rule="evenodd" d="M32 2H16C8.26801 2 2 8.26801 2 16V32C2 39.732 8.26801 46 16 46H32C39.732 46 46 39.732 46 32V16C46 8.26801 39.732 2 32 2ZM16 0C7.16344 0 0 7.16344 0 16V32C0 40.8366 7.16344 48 16 48H32C40.8366 48 48 40.8366 48 32V16C48 7.16344 40.8366 0 32 0H16Z" fill="#5761D7"/>
</g>
<defs>
<clipPath id="clip0_173_2128">
<rect width="48" height="48" fill="white"/>
</clipPath>
</defs>
</svg>
