<svg width="48" height="48" viewBox="0 0 48 48" fill="none" xmlns="http://www.w3.org/2000/svg">
<g clip-path="url(#clip0_173_1997)">
<path fill-rule="evenodd" clip-rule="evenodd" d="M32 2H16C8.26801 2 2 8.26801 2 16V32C2 39.732 8.26801 46 16 46H32C39.732 46 46 39.732 46 32V16C46 8.26801 39.732 2 32 2ZM16 0C7.16344 0 0 7.16344 0 16V32C0 40.8366 7.16344 48 16 48H32C40.8366 48 48 40.8366 48 32V16C48 7.16344 40.8366 0 32 0H16Z" fill="#5761D7"/>
<path d="M28.19 14H19.81C16.17 14 14 16.17 14 19.81V28.18C14 31.83 16.17 34 19.81 34H28.18C31.82 34 33.99 31.83 33.99 28.19V19.81C34 16.17 31.83 14 28.19 14ZM18.47 19.72C18.76 19.43 19.24 19.43 19.53 19.72C20.24 20.43 21.4 20.43 22.11 19.72C22.4 19.43 22.88 19.43 23.17 19.72C23.46 20.01 23.46 20.49 23.17 20.78C22.52 21.43 21.67 21.75 20.82 21.75C19.97 21.75 19.12 21.43 18.47 20.78C18.18 20.48 18.18 20.01 18.47 19.72ZM24 30.78C21.31 30.78 19.12 28.59 19.12 25.9C19.12 25.2 19.69 24.62 20.39 24.62H27.59C28.29 24.62 28.86 25.19 28.86 25.9C28.88 28.59 26.69 30.78 24 30.78ZM29.53 20.78C28.88 21.43 28.03 21.75 27.18 21.75C26.33 21.75 25.48 21.43 24.83 20.78C24.54 20.49 24.54 20.01 24.83 19.72C25.12 19.43 25.6 19.43 25.89 19.72C26.6 20.43 27.76 20.43 28.47 19.72C28.76 19.43 29.24 19.43 29.53 19.72C29.82 20.01 29.82 20.48 29.53 20.78Z" fill="#5761D7"/>
</g>
<defs>
<clipPath id="clip0_173_1997">
<rect width="48" height="48" fill="white"/>
</clipPath>
</defs>
</svg>
