<svg width="48" height="48" viewBox="0 0 48 48" fill="none" xmlns="http://www.w3.org/2000/svg">
<g clip-path="url(#clip0_173_2111)">
<path d="M26.3498 14H21.6498C20.6098 14 19.7598 14.84 19.7598 15.88V16.82C19.7598 17.86 20.5998 18.7 21.6398 18.7H26.3498C27.3898 18.7 28.2298 17.86 28.2298 16.82V15.88C28.2398 14.84 27.3898 14 26.3498 14Z" fill="#5761D7"/>
<path d="M29.24 16.8205C29.24 18.4105 27.94 19.7105 26.35 19.7105H21.65C20.06 19.7105 18.76 18.4105 18.76 16.8205C18.76 16.2605 18.16 15.9105 17.66 16.1705C16.25 16.9205 15.29 18.4105 15.29 20.1205V29.5305C15.29 31.9905 17.3 34.0005 19.76 34.0005H28.24C30.7 34.0005 32.71 31.9905 32.71 29.5305V20.1205C32.71 18.4105 31.75 16.9205 30.34 16.1705C29.84 15.9105 29.24 16.2605 29.24 16.8205ZM27.34 24.7305L23.34 28.7305C23.19 28.8805 23 28.9505 22.81 28.9505C22.62 28.9505 22.43 28.8805 22.28 28.7305L20.78 27.2305C20.49 26.9405 20.49 26.4605 20.78 26.1705C21.07 25.8805 21.55 25.8805 21.84 26.1705L22.81 27.1405L26.28 23.6705C26.57 23.3805 27.05 23.3805 27.34 23.6705C27.63 23.9605 27.63 24.4405 27.34 24.7305Z" fill="#5761D7"/>
<path fill-rule="evenodd" clip-rule="evenodd" d="M32 2H16C8.26801 2 2 8.26801 2 16V32C2 39.732 8.26801 46 16 46H32C39.732 46 46 39.732 46 32V16C46 8.26801 39.732 2 32 2ZM16 0C7.16344 0 0 7.16344 0 16V32C0 40.8366 7.16344 48 16 48H32C40.8366 48 48 40.8366 48 32V16C48 7.16344 40.8366 0 32 0H16Z" fill="#5761D7"/>
</g>
<defs>
<clipPath id="clip0_173_2111">
<rect width="48" height="48" fill="white"/>
</clipPath>
</defs>
</svg>
