<svg width="48" height="48" viewBox="0 0 48 48" fill="none" xmlns="http://www.w3.org/2000/svg">
<g clip-path="url(#clip0_173_2119)">
<path d="M20.29 18.29C19.87 18.29 19.54 17.95 19.54 17.54V14.75C19.54 14.34 19.87 14 20.29 14C20.71 14 21.04 14.34 21.04 14.75V17.53C21.04 17.95 20.71 18.29 20.29 18.29Z" fill="#5761D7"/>
<path d="M27.71 18.29C27.29 18.29 26.96 17.95 26.96 17.54V14.75C26.96 14.33 27.3 14 27.71 14C28.13 14 28.46 14.34 28.46 14.75V17.53C28.46 17.95 28.13 18.29 27.71 18.29Z" fill="#5761D7"/>
<path d="M31.57 16.5C30.91 16.01 29.96 16.48 29.96 17.31V17.41C29.96 18.58 29.12 19.66 27.95 19.78C26.6 19.92 25.46 18.86 25.46 17.54V16.5C25.46 15.95 25.01 15.5 24.46 15.5H23.54C22.99 15.5 22.54 15.95 22.54 16.5V17.54C22.54 18.33 22.13 19.03 21.51 19.42C21.42 19.48 21.32 19.53 21.22 19.58C21.13 19.63 21.03 19.67 20.92 19.7C20.8 19.74 20.67 19.77 20.53 19.78C20.37 19.8 20.21 19.8 20.05 19.78C19.91 19.77 19.78 19.74 19.66 19.7C19.56 19.67 19.46 19.63 19.36 19.58C19.26 19.53 19.16 19.48 19.07 19.42C18.44 18.98 18.04 18.22 18.04 17.41V17.31C18.04 16.54 17.22 16.08 16.57 16.41C16.56 16.42 16.55 16.42 16.54 16.43C16.5 16.45 16.47 16.47 16.43 16.5C16.4 16.53 16.36 16.55 16.33 16.58C16.05 16.8 15.8 17.05 15.59 17.32C15.48 17.44 15.39 17.57 15.31 17.7C15.3 17.71 15.29 17.72 15.28 17.74C15.19 17.87 15.11 18.02 15.04 18.16C15.02 18.18 15.01 18.19 15.01 18.21C14.95 18.33 14.89 18.45 14.85 18.58C14.82 18.63 14.81 18.67 14.79 18.72C14.73 18.87 14.69 19.02 14.65 19.17C14.61 19.31 14.58 19.46 14.56 19.61C14.54 19.72 14.53 19.83 14.52 19.95C14.51 20.09 14.5 20.23 14.5 20.37V29.13C14.5 31.82 16.68 34 19.37 34H28.63C31.32 34 33.5 31.82 33.5 29.13V20.37C33.5 18.78 32.74 17.39 31.57 16.5ZM24 28.25H22.31V30C22.31 30.41 21.97 30.75 21.56 30.75C21.14 30.75 20.81 30.41 20.81 30V28.25H19C18.59 28.25 18.25 27.91 18.25 27.5C18.25 27.09 18.59 26.75 19 26.75H20.81V25C20.81 24.59 21.14 24.25 21.56 24.25C21.97 24.25 22.31 24.59 22.31 25V26.75H24C24.41 26.75 24.75 27.09 24.75 27.5C24.75 27.91 24.41 28.25 24 28.25Z" fill="#5761D7"/>
<path fill-rule="evenodd" clip-rule="evenodd" d="M32 2H16C8.26801 2 2 8.26801 2 16V32C2 39.732 8.26801 46 16 46H32C39.732 46 46 39.732 46 32V16C46 8.26801 39.732 2 32 2ZM16 0C7.16344 0 0 7.16344 0 16V32C0 40.8366 7.16344 48 16 48H32C40.8366 48 48 40.8366 48 32V16C48 7.16344 40.8366 0 32 0H16Z" fill="#5761D7"/>
</g>
<defs>
<clipPath id="clip0_173_2119">
<rect width="48" height="48" fill="white"/>
</clipPath>
</defs>
</svg>
