<svg width="24" height="24" viewBox="0 0 24 24" fill="none" xmlns="http://www.w3.org/2000/svg">
<path d="M18 2H6C5.20435 2 4.44129 2.31607 3.87868 2.87868C3.31607 3.44129 3 4.20435 3 5V19C3 19.7956 3.31607 20.5587 3.87868 21.1213C4.44129 21.6839 5.20435 22 6 22H18C18.7956 22 19.5587 21.6839 20.1213 21.1213C20.6839 20.5587 21 19.7956 21 19V5C21 4.20435 20.6839 3.44129 20.1213 2.87868C19.5587 2.31607 18.7956 2 18 2ZM19 19C19 19.2652 18.8946 19.5196 18.7071 19.7071C18.5196 19.8946 18.2652 20 18 20H6C5.73478 20 5.48043 19.8946 5.29289 19.7071C5.10536 19.5196 5 19.2652 5 19V5C5 4.73478 5.10536 4.48043 5.29289 4.29289C5.48043 4.10536 5.73478 4 6 4H18C18.2652 4 18.5196 4.10536 18.7071 4.29289C18.8946 4.48043 19 4.73478 19 5V19ZM9.93 12.11C9.93 12.3572 9.85669 12.5989 9.71934 12.8045C9.58199 13.01 9.38676 13.1702 9.15835 13.2648C8.92995 13.3595 8.67861 13.3842 8.43614 13.336C8.19366 13.2878 7.97093 13.1687 7.79612 12.9939C7.6213 12.8191 7.50225 12.5963 7.45402 12.3539C7.40579 12.1114 7.43054 11.8601 7.52515 11.6316C7.61976 11.4032 7.77998 11.208 7.98554 11.0707C8.1911 10.9333 8.43277 10.86 8.68 10.86C9.01152 10.86 9.32946 10.9917 9.56388 11.2261C9.7983 11.4605 9.93 11.7785 9.93 12.11ZM14.69 12.11C14.69 12.3572 14.6167 12.5989 14.4793 12.8045C14.342 13.01 14.1468 13.1702 13.9184 13.2648C13.6899 13.3595 13.4386 13.3842 13.1961 13.336C12.9537 13.2878 12.7309 13.1687 12.5561 12.9939C12.3813 12.8191 12.2622 12.5963 12.214 12.3539C12.1658 12.1114 12.1905 11.8601 12.2852 11.6316C12.3798 11.4032 12.54 11.208 12.7455 11.0707C12.9511 10.9333 13.1928 10.86 13.44 10.86C13.7715 10.86 14.0895 10.9917 14.3239 11.2261C14.5583 11.4605 14.69 11.7785 14.69 12.11ZM9.93 16.78C9.93 17.0272 9.85669 17.2689 9.71934 17.4745C9.58199 17.68 9.38676 17.8402 9.15835 17.9348C8.92995 18.0295 8.67861 18.0542 8.43614 18.006C8.19366 17.9578 7.97093 17.8387 7.79612 17.6639C7.6213 17.4891 7.50225 17.2663 7.45402 17.0239C7.40579 16.7814 7.43054 16.5301 7.52515 16.3016C7.61976 16.0732 7.77998 15.878 7.98554 15.7407C8.1911 15.6033 8.43277 15.53 8.68 15.53C8.84452 15.5287 9.00767 15.5601 9.15993 15.6224C9.31219 15.6848 9.45051 15.7768 9.56685 15.8931C9.68319 16.0095 9.77522 16.1478 9.83756 16.3001C9.89991 16.4523 9.93133 16.6155 9.93 16.78ZM14.69 16.78C14.69 17.0272 14.6167 17.2689 14.4793 17.4745C14.342 17.68 14.1468 17.8402 13.9184 17.9348C13.6899 18.0295 13.4386 18.0542 13.1961 18.006C12.9537 17.9578 12.7309 17.8387 12.5561 17.6639C12.3813 17.4891 12.2622 17.2663 12.214 17.0239C12.1658 16.7814 12.1905 16.5301 12.2852 16.3016C12.3798 16.0732 12.54 15.878 12.7455 15.7407C12.9511 15.6033 13.1928 15.53 13.44 15.53C13.7715 15.53 14.0895 15.6617 14.3239 15.8961C14.5583 16.1305 14.69 16.4485 14.69 16.78ZM17 7C17 7.26522 16.8946 7.51957 16.7071 7.70711C16.5196 7.89464 16.2652 8 16 8H8C7.73478 8 7.48043 7.89464 7.29289 7.70711C7.10536 7.51957 7 7.26522 7 7C7 6.73478 7.10536 6.48043 7.29289 6.29289C7.48043 6.10536 7.73478 6 8 6H16C16.2652 6 16.5196 6.10536 16.7071 6.29289C16.8946 6.48043 17 6.73478 17 7Z" fill="white"/>
</svg>
